<svg xmlns="http://www.w3.org/2000/svg" viewBox="0 0 6641.78 2524.6"><defs><style>.cls-1{fill:#fff;}.cls-2{fill:#f2f2f2;}.cls-3{fill:#f73c00;}</style></defs><g id="Layer_2" data-name="Layer 2"><g id="Layer_1-2" data-name="Layer 1"><rect class="cls-1" width="6641.78" height="2524.6"/><rect class="cls-2" x="96.86" y="96.86" width="6448.06" height="2330.87" rx="152.92"/><polygon points="3793.75 1466.93 3624.65 1466.93 3624.65 1409.16 3671.86 1409.16 3671.86 1039.94 3621.83 1039.94 3621.83 982.17 3746.55 982.17 3746.55 1409.16 3793.75 1409.16 3793.75 1466.93"/><path d="M4049,1358.42q-4.93,19.72-21.14,37.35-15.49,17.61-52.14,17.61-78.21,0-84.55-88.78h213.5a230.7,230.7,0,0,0,4.22-42.28q-.7-59.88-39.45-98.64-38.05-39.47-103.58-39.46-72.57,0-113.44,48.62-40.17,48.62-40.16,121.19,0,78.92,44.39,119.78,44.39,40.17,113.44,40.17,64.11,0,100.76-31t40.86-72.57Zm-135.28-136q17.61-22.54,51.43-22.54,37.35,0,52.85,25.36,16.2,24.66,13.39,52.85H3891.92Q3896.14,1245,3913.76,1222.43Z"/><polygon points="4477.12 1466.93 4325.63 1466.93 4325.63 1409.16 4355.93 1409.16 4298.85 1344.33 4242.49 1409.16 4269.26 1409.16 4269.26 1466.93 4127.64 1466.93 4127.64 1409.16 4171.32 1409.16 4262.92 1310.51 4165.68 1208.35 4129.75 1208.35 4129.75 1150.57 4284.06 1150.57 4284.06 1208.35 4254.46 1208.35 4307.31 1271.76 4363.68 1208.35 4336.2 1208.35 4336.2 1150.57 4469.37 1150.57 4469.37 1208.35 4436.25 1208.35 4345.36 1303.47 4443.3 1409.16 4477.12 1409.16 4477.12 1466.93"/><polygon points="4666.18 1466.93 4497.07 1466.93 4497.07 1409.16 4544.28 1409.16 4544.28 1209.05 4494.26 1209.05 4494.26 1150.57 4618.97 1150.57 4618.97 1409.16 4666.18 1409.16 4666.18 1466.93"/><path d="M4979,1353.49q-4.94,42.29-37.34,81.74Q4909.26,1474,4837.39,1474q-67.64,0-110.62-40.87-42.27-40.86-42.27-119.07,0-76.82,43.68-123.31,44.39-46.5,115.56-46.5a231.37,231.37,0,0,1,56.36,7,209.79,209.79,0,0,1,55.67,23.25l12.68,88.78-60.59,6.35-10.57-52.14a124,124,0,0,0-55-12.69q-78.91,0-78.92,105.69,0,102.87,81,102.88,59.19,0,71.17-71.87Z"/><path d="M5318.49,1419q-9.85,2.82-16.2,2.82-23.25,0-23.26-28.19V1251.32q0-53.55-34.52-80.32-33.83-26.77-86.67-26.78-35.92,0-63.41,6.34t-62.71,23.26l-13.39,78.91,60.6,6.34,12.68-48.61a81,81,0,0,1,24.66-8.46,180.63,180.63,0,0,1,28.19-2.11q39.45,0,49.32,22.54t9.86,50.74v17.61q-12-1.41-26.07-2.11t-27.48-.71q-54.26,0-100.76,19-46.5,18.32-46.5,76.8,0,50,31.71,70.46Q5067,1474,5100.07,1474q38,0,63.41-19.73,26.07-19.73,40.16-44.39v1.41q4.94,62.7,64.83,62.71a100,100,0,0,0,50.73-13.39Zm-114.85-77.51q-2.82,38.06-26.77,57.78-24,19-50.73,19-45.81,0-45.8-43,0-29.6,21.84-39.46,22.55-9.86,50.73-9.86a236.54,236.54,0,0,1,26.07,1.41q12.33,1.36,24.66,2.82Z"/><polygon points="5498.93 1466.93 5329.82 1466.93 5329.82 1409.16 5377.03 1409.16 5377.03 1039.94 5327 1039.94 5327 982.17 5451.72 982.17 5451.72 1409.16 5498.93 1409.16 5498.93 1466.93"/><rect class="cls-3" x="4538.15" y="1001.39" width="79.69" height="83.88"/><path d="M1340,1219.48h92.27v42H1340Z"/><path d="M1226.74,1353.7H1319v41.94h-92.27Z"/><rect class="cls-3" x="1226.74" y="1219.48" width="92.27" height="41.94"/><path class="cls-3" d="M1453.22,1219.48v41.94H1491v-41.94Zm-226.48,67.11v41.94h151v-41.94Zm172,0v41.94H1491v-41.94Z"/><path class="cls-3" d="M1340,1353.7h92.27v41.94H1340Z"/><path d="M1453.22,1353.7H1491v41.94h-37.75Z"/><path d="M1491,1177.54V1135.6H1142.86v343.91H1491v-41.94H1184.8v-260Zm83.88-41.94v41.94h21v260h-21v41.94h62.91V1135.6Z"/><path d="M1470,1114.63v-41.94h130v41.94h-46.13v385.86H1600v41.94H1470v-41.94h41.94V1114.63Z"/><path d="M1850.22,1256.14c0,28.9,18.2,39.07,66.9,46.57l35.33,5.35c77.08,11.77,99.56,36.39,99.56,83.5,0,51.92-35.33,87.78-121.5,87.78s-131.14-29.44-131.14-100.09h43.89c0,45.49,27.3,64.76,87.25,64.76,56.2,0,78.68-15,78.68-50.31,0-28.91-14.45-37.47-68.52-46l-34.79-5.36c-69-10.7-98.48-34.79-98.48-84,0-49.78,36.93-80.82,116.68-80.82,78.68,0,119.9,27.83,120.43,90.45h-42.28c0-38.53-25.16-55.13-78.15-55.13C1866.81,1212.78,1850.22,1229.38,1850.22,1256.14Z"/><path d="M2067,1183.34h47.64l98.48,250.5,99-250.5h46L2242,1474h-58.88Z"/><path d="M2386.53,1327.86c0-97.95,45-150.4,138.63-150.4,98.49,0,134.35,56.73,134.35,142.91a153.12,153.12,0,0,1-1.07,16.06h-228c2.14,72.79,31.58,107,98.49,107,54.59,0,85.1-20.88,86.71-65.31h42.82c-3.75,65.84-47.11,101.17-131.14,101.17C2432,1479.34,2386.53,1426.88,2386.53,1327.86ZM2432,1300h184.66c-3.21-51.92-24.62-86.71-91.53-86.71C2466.82,1213.32,2438.45,1241.15,2432,1300Z"/><path d="M2810.44,1437.59V1109H2694.3v-36.4h161.64v365h124.18V1474H2694.3v-36.39Z"/><path d="M3040.06,1219.74h-96.88v-36.4h99l10.17-110.79h33.19v110.79h138.63v36.4H3085.56v194.83c0,16.06,7,23,22.48,23h116.15V1474H3096.8c-37.47,0-56.74-18.73-56.74-56.2Z"/><path d="M3253.62,1327.86c0-97.95,45-150.4,138.63-150.4,98.49,0,134.35,56.73,134.35,142.91a150.46,150.46,0,0,1-1.07,16.06h-228c2.15,72.79,31.58,107,98.49,107,54.6,0,85.1-20.88,86.71-65.31h42.82c-3.75,65.84-47.1,101.17-131.14,101.17C3299.12,1479.34,3253.62,1426.88,3253.62,1327.86Zm45.5-27.83h184.66c-3.21-51.92-24.62-86.71-91.53-86.71C3333.91,1213.32,3305.54,1241.15,3299.12,1300Z"/></g></g></svg>