<?xml version="1.0" encoding="utf-8"?>
<svg viewBox="0 0 6641.8 1680" xmlns="http://www.w3.org/2000/svg">
  <defs>
    <style>.cls-1{fill:#fff;}.cls-2{fill:#f2f2f2;}.cls-3{fill:#f73c00;}</style>
  </defs>
  <g id="Layer_1-2" data-name="Layer 1" transform="matrix(1, 0, 0, 1, 0.010119000450004023, -16.436792373657227)">
    <rect class="cls-1" width="6641.78" height="1700" style=""/>
    <rect class="cls-2" x="96.86" y="96.86" width="6448.06" height="1500" rx="152.92"/>
    <polygon points="3793.744 1061.067 3624.645 1061.067 3624.645 1003.297 3671.856 1003.297 3671.856 634.077 3621.825 634.077 3621.825 576.307 3746.545 576.307 3746.545 1003.297 3793.744 1003.297 3793.744 1061.067"/>
    <path d="M 4048.994 952.557 C 4045.708 965.704 4038.661 978.154 4027.854 989.907 C 4017.528 1001.647 4000.148 1007.517 3975.714 1007.517 C 3923.574 1007.517 3895.391 977.924 3891.164 918.737 L 4104.664 918.737 C 4107.369 904.804 4108.781 890.65 4108.884 876.457 C 4108.418 836.537 4095.268 803.657 4069.434 777.817 C 4044.068 751.504 4009.541 738.351 3965.854 738.357 C 3917.474 738.357 3879.661 754.564 3852.414 786.977 C 3825.634 819.391 3812.248 859.787 3812.254 908.167 C 3812.254 960.781 3827.051 1000.707 3856.644 1027.947 C 3886.238 1054.727 3924.051 1068.117 3970.084 1068.117 C 4012.824 1068.117 4046.411 1057.784 4070.844 1037.117 C 4095.278 1016.451 4108.898 992.261 4111.704 964.547 L 4048.994 952.557 Z M 3913.714 816.557 C 3925.454 801.531 3942.598 794.017 3965.144 794.017 C 3990.044 794.017 4007.661 802.471 4017.994 819.377 C 4028.794 835.817 4033.258 853.434 4031.384 872.227 L 3891.914 872.227 C 3894.728 850.167 3902.008 831.614 3913.754 816.567 L 3913.714 816.557 Z"/>
    <polygon points="4477.115 1061.067 4325.625 1061.067 4325.625 1003.297 4355.925 1003.297 4298.845 938.467 4242.485 1003.297 4269.254 1003.297 4269.254 1061.067 4127.636 1061.067 4127.636 1003.297 4171.314 1003.297 4262.915 904.647 4165.676 802.487 4129.744 802.487 4129.744 744.707 4284.055 744.707 4284.055 802.487 4254.455 802.487 4307.305 865.897 4363.675 802.487 4336.195 802.487 4336.195 744.707 4469.365 744.707 4469.365 802.487 4436.245 802.487 4345.355 897.607 4443.294 1003.297 4477.115 1003.297 4477.115 1061.067"/>
    <polygon points="4666.175 1061.067 4497.064 1061.067 4497.064 1003.297 4544.274 1003.297 4544.274 803.187 4494.254 803.187 4494.254 744.707 4618.965 744.707 4618.965 1003.297 4666.175 1003.297 4666.175 1061.067"/>
    <path d="M 4978.994 947.627 C 4975.701 975.821 4963.254 1003.067 4941.654 1029.367 C 4920.054 1055.214 4885.298 1068.137 4837.384 1068.137 C 4792.291 1068.137 4755.418 1054.514 4726.764 1027.267 C 4698.584 1000.027 4684.494 960.337 4684.494 908.197 C 4684.494 856.984 4699.054 815.881 4728.174 784.887 C 4757.768 753.887 4796.288 738.387 4843.734 738.387 C 4862.737 738.397 4881.667 740.748 4900.094 745.387 C 4919.674 750.415 4938.425 758.246 4955.764 768.637 L 4968.444 857.417 L 4907.854 863.767 L 4897.284 811.627 C 4880.17 803.225 4861.35 798.883 4842.284 798.937 C 4789.678 798.937 4763.371 834.167 4763.364 904.627 C 4763.364 973.207 4790.364 1007.501 4844.364 1007.507 C 4883.824 1007.507 4907.548 983.551 4915.534 935.637 L 4978.994 947.627 Z"/>
    <path d="M 5318.484 1013.137 C 5311.918 1015.017 5306.518 1015.957 5302.284 1015.957 C 5286.784 1015.957 5279.031 1006.561 5279.024 987.767 L 5279.024 845.457 C 5279.024 809.757 5267.518 782.984 5244.504 765.137 C 5221.951 747.291 5193.061 738.364 5157.834 738.357 C 5133.888 738.357 5112.751 740.471 5094.424 744.697 C 5076.098 748.924 5055.194 756.677 5031.714 767.957 L 5018.324 846.867 L 5078.924 853.207 L 5091.604 804.597 C 5099.314 800.464 5107.642 797.607 5116.264 796.137 C 5125.592 794.699 5135.017 793.993 5144.454 794.027 C 5170.754 794.027 5187.194 801.541 5193.774 816.567 C 5200.354 831.594 5203.641 848.507 5203.634 867.307 L 5203.634 884.917 C 5195.634 883.977 5186.944 883.274 5177.564 882.807 C 5168.184 882.341 5159.024 882.104 5150.084 882.097 C 5113.911 882.097 5080.324 888.431 5049.324 901.097 C 5018.324 913.311 5002.824 938.911 5002.824 977.897 C 5002.824 1011.231 5013.394 1034.717 5034.534 1048.357 C 5056.174 1061.544 5078.018 1068.137 5100.064 1068.137 C 5125.398 1068.137 5146.534 1061.561 5163.474 1048.407 C 5180.854 1035.254 5194.241 1020.457 5203.634 1004.017 L 5203.634 1005.427 C 5206.928 1047.227 5228.538 1068.131 5268.464 1068.137 C 5286.265 1068.269 5303.778 1063.646 5319.194 1054.747 L 5318.484 1013.137 Z M 5203.634 935.627 C 5201.754 961.001 5192.831 980.261 5176.864 993.407 C 5160.864 1006.074 5143.954 1012.407 5126.134 1012.407 C 5095.594 1012.407 5080.328 998.074 5080.334 969.407 C 5080.334 949.674 5087.614 936.521 5102.174 929.947 C 5117.208 923.374 5134.118 920.087 5152.904 920.087 C 5161.614 920.077 5170.317 920.548 5178.974 921.497 C 5187.194 922.404 5195.414 923.344 5203.634 924.317 L 5203.634 935.627 Z"/>
    <polygon points="5498.925 1061.067 5329.814 1061.067 5329.814 1003.297 5377.024 1003.297 5377.024 634.077 5326.995 634.077 5326.995 576.307 5451.715 576.307 5451.715 1003.297 5498.925 1003.297 5498.925 1061.067"/>
    <rect class="cls-3" x="4538.145" y="595.527" width="79.69" height="83.88"/>
    <path d="M 1339.994 813.617 L 1432.264 813.617 L 1432.264 855.617 L 1339.994 855.617 L 1339.994 813.617 Z"/>
    <path d="M 1226.734 947.837 L 1318.994 947.837 L 1318.994 989.777 L 1226.724 989.777 L 1226.734 947.837 Z"/>
    <rect class="cls-3" x="1226.734" y="813.617" width="92.27" height="41.94"/>
    <path class="cls-3" d="M 1453.214 813.617 L 1453.214 855.557 L 1490.994 855.557 L 1490.994 813.617 L 1453.214 813.617 Z M 1226.734 880.727 L 1226.734 922.667 L 1377.734 922.667 L 1377.734 880.727 L 1226.734 880.727 Z M 1398.734 880.727 L 1398.734 922.667 L 1490.994 922.667 L 1490.994 880.727 L 1398.734 880.727 Z"/>
    <path class="cls-3" d="M 1339.994 947.837 L 1432.264 947.837 L 1432.264 989.777 L 1339.994 989.777 L 1339.994 947.837 Z"/>
    <path d="M 1453.214 947.837 L 1490.994 947.837 L 1490.994 989.777 L 1453.244 989.777 L 1453.214 947.837 Z"/>
    <path d="M 1490.994 771.677 L 1490.994 729.737 L 1142.854 729.737 L 1142.854 1073.647 L 1490.994 1073.647 L 1490.994 1031.707 L 1184.794 1031.707 L 1184.794 771.707 L 1490.994 771.677 Z M 1574.874 729.737 L 1574.874 771.677 L 1595.874 771.677 L 1595.874 1031.677 L 1574.874 1031.677 L 1574.874 1073.617 L 1637.784 1073.617 L 1637.784 729.737 L 1574.874 729.737 Z"/>
    <path d="M 1469.994 708.767 L 1469.994 666.827 L 1599.994 666.827 L 1599.994 708.767 L 1553.864 708.767 L 1553.864 1094.627 L 1599.994 1094.627 L 1599.994 1136.567 L 1469.994 1136.567 L 1469.994 1094.627 L 1511.934 1094.627 L 1511.934 708.767 L 1469.994 708.767 Z"/>
    <path d="M 1850.214 850.277 C 1850.214 879.177 1868.414 889.347 1917.114 896.847 L 1952.444 902.197 C 2029.524 913.967 2052.004 938.587 2052.004 985.697 C 2052.004 1037.617 2016.674 1073.477 1930.504 1073.477 C 1844.334 1073.477 1799.364 1044.037 1799.364 973.387 L 1843.254 973.387 C 1843.254 1018.877 1870.554 1038.147 1930.504 1038.147 C 1986.704 1038.147 2009.184 1023.147 2009.184 987.837 C 2009.184 958.927 1994.734 950.367 1940.664 941.837 L 1905.874 936.477 C 1836.874 925.777 1807.394 901.687 1807.394 852.477 C 1807.394 802.697 1844.324 771.657 1924.074 771.657 C 2002.754 771.657 2043.974 799.487 2044.504 862.107 L 2002.224 862.107 C 2002.224 823.577 1977.064 806.977 1924.074 806.977 C 1866.804 806.917 1850.214 823.517 1850.214 850.277 Z"/>
    <path d="M 2066.994 777.477 L 2114.634 777.477 L 2213.114 1027.977 L 2312.114 777.477 L 2358.114 777.477 L 2241.994 1068.137 L 2183.114 1068.137 L 2066.994 777.477 Z"/>
    <path d="M 2386.524 921.997 C 2386.524 824.047 2431.524 771.597 2525.154 771.597 C 2623.644 771.597 2659.504 828.327 2659.504 914.507 C 2659.43 919.876 2659.072 925.236 2658.434 930.567 L 2430.434 930.567 C 2432.574 1003.357 2462.014 1037.567 2528.924 1037.567 C 2583.514 1037.567 2614.024 1016.687 2615.634 972.257 L 2658.454 972.257 C 2654.704 1038.097 2611.344 1073.427 2527.314 1073.427 C 2431.994 1073.477 2386.524 1021.017 2386.524 921.997 Z M 2431.994 894.137 L 2616.654 894.137 C 2613.444 842.217 2592.034 807.427 2525.124 807.427 C 2466.814 807.457 2438.444 835.287 2431.994 894.137 Z"/>
    <path d="M 2810.434 1031.727 L 2810.434 703.137 L 2694.294 703.137 L 2694.294 666.737 L 2855.934 666.737 L 2855.934 1031.737 L 2980.114 1031.737 L 2980.114 1068.137 L 2694.294 1068.137 L 2694.294 1031.747 L 2810.434 1031.727 Z"/>
    <path d="M 3040.054 813.877 L 2943.174 813.877 L 2943.174 777.477 L 3042.174 777.477 L 3052.344 666.687 L 3085.534 666.687 L 3085.534 777.477 L 3224.164 777.477 L 3224.164 813.877 L 3085.554 813.877 L 3085.554 1008.707 C 3085.554 1024.767 3092.554 1031.707 3108.034 1031.707 L 3224.184 1031.707 L 3224.184 1068.137 L 3096.794 1068.137 C 3059.324 1068.137 3040.054 1049.407 3040.054 1011.937 L 3040.054 813.877 Z"/>
    <path d="M 3253.614 921.997 C 3253.614 824.047 3298.614 771.597 3392.244 771.597 C 3490.734 771.597 3526.594 828.327 3526.594 914.507 C 3526.525 919.876 3526.167 925.237 3525.524 930.567 L 3297.524 930.567 C 3299.674 1003.357 3329.104 1037.567 3396.014 1037.567 C 3450.614 1037.567 3481.114 1016.687 3482.724 972.257 L 3525.544 972.257 C 3521.794 1038.097 3478.444 1073.427 3394.404 1073.427 C 3299.114 1073.477 3253.614 1021.017 3253.614 921.997 Z M 3299.114 894.167 L 3483.774 894.167 C 3480.564 842.247 3459.154 807.457 3392.244 807.457 C 3333.904 807.457 3305.534 835.287 3299.114 894.137 L 3299.114 894.167 Z"/>
  </g>
</svg>