<svg xmlns="http://www.w3.org/2000/svg" viewBox="0 0 494.9 469.74"><defs><style>.cls-1{fill:#f73c00;}</style></defs><g id="Layer_2" data-name="Layer 2"><g id="Layer_1-2" data-name="Layer 1"><rect class="cls-1" x="83.88" y="146.79" width="92.27" height="41.94"/><path d="M197.12,146.79h92.27v41.94H197.12Z"/><path class="cls-1" d="M255.84,213.9v41.94h92.27V213.9Zm-172,0v41.94h151V213.9Zm226.48-67.11v42h37.75v-42Z"/><path d="M83.88,281h92.27v41.94H83.88Z"/><path class="cls-1" d="M197.12,281h92.27v41.94H197.12Z"/><path d="M310.36,281h37.75v41.94H310.36Z"/><path d="M432,62.91v41.94h21v260H432v41.94H494.9V62.91Zm-83.88,41.94V62.91H0V406.83H348.11V364.89H41.94v-260Z"/><path d="M327.14,41.94V0h130V41.94H411V427.8h46.14v41.94h-130V427.8h41.94V41.94Z"/></g></g></svg>