<svg xmlns="http://www.w3.org/2000/svg" viewBox="0 0 3699.56 497.17"><defs><style>.cls-1{fill:#fff;}.cls-2{fill:#f73c00;}</style></defs><g id="Layer_2" data-name="Layer 2"><g id="Layer_1-2" data-name="Layer 1"><polygon class="cls-1" points="1994.38 484.77 1825.28 484.77 1825.28 426.99 1872.49 426.99 1872.49 57.78 1822.46 57.78 1822.46 0 1947.17 0 1947.17 426.99 1994.38 426.99 1994.38 484.77"/><path class="cls-1" d="M2249.67,376.26q-4.93,19.73-21.14,37.35-15.5,17.61-52.14,17.61-78.21,0-84.55-88.78h213.5a230.7,230.7,0,0,0,4.22-42.28q-.7-59.88-39.45-98.64-38.06-39.47-103.58-39.46-72.57,0-113.44,48.62-40.17,48.62-40.16,121.19,0,78.92,44.39,119.78,44.38,40.17,113.44,40.17,64.11,0,100.76-31t40.86-72.57Zm-135.28-136q17.61-22.54,51.43-22.54,37.35,0,52.85,25.36,16.2,24.66,13.39,52.85H2092.55Q2096.77,262.82,2114.39,240.27Z"/><polygon class="cls-1" points="2677.75 484.77 2526.26 484.77 2526.26 426.99 2556.56 426.99 2499.49 362.17 2443.12 426.99 2469.89 426.99 2469.89 484.77 2328.27 484.77 2328.27 426.99 2371.95 426.99 2463.55 328.35 2366.31 226.18 2330.38 226.18 2330.38 168.4 2484.69 168.4 2484.69 226.18 2455.09 226.18 2507.94 289.59 2564.31 226.18 2536.83 226.18 2536.83 168.4 2670 168.4 2670 226.18 2636.88 226.18 2545.99 321.3 2643.93 426.99 2677.75 426.99 2677.75 484.77"/><polygon class="cls-1" points="2866.81 484.77 2697.7 484.77 2697.7 426.99 2744.91 426.99 2744.91 226.88 2694.89 226.88 2694.89 168.4 2819.6 168.4 2819.6 426.99 2866.81 426.99 2866.81 484.77"/><path class="cls-1" d="M3179.65,371.33q-4.93,42.27-37.34,81.73-32.42,38.76-104.29,38.75-67.64,0-110.62-40.86-42.27-40.87-42.27-119.08,0-76.8,43.68-123.31,44.39-46.5,115.56-46.5a231.39,231.39,0,0,1,56.36,7.05,209.13,209.13,0,0,1,55.67,23.25l12.68,88.78-60.59,6.34-10.57-52.14a124.08,124.08,0,0,0-55-12.68q-78.91,0-78.92,105.69,0,102.87,81,102.87,59.19,0,71.17-71.87Z"/><path class="cls-1" d="M3519.12,436.86q-9.85,2.82-16.2,2.82-23.25,0-23.26-28.19V269.16q0-53.55-34.52-80.32-33.82-26.78-86.67-26.78-35.92,0-63.41,6.34t-62.71,23.26L3219,270.57l60.6,6.34,12.68-48.61a81,81,0,0,1,24.66-8.46,180.63,180.63,0,0,1,28.19-2.11q39.45,0,49.32,22.54t9.86,50.74v17.61q-12-1.41-26.07-2.11t-27.48-.71q-54.25,0-100.76,19-46.5,18.32-46.5,76.8,0,50,31.71,70.46,32.41,19.73,65.53,19.73,38,0,63.41-19.73,26.07-19.72,40.16-44.39v1.41q4.93,62.7,64.83,62.71a100,100,0,0,0,50.73-13.39Zm-114.85-77.51q-2.82,38.06-26.77,57.78-24,19-50.73,19-45.81,0-45.8-43,0-29.6,21.84-39.46,22.55-9.85,50.73-9.86a236.54,236.54,0,0,1,26.07,1.41q12.33,1.37,24.66,2.82Z"/><polygon class="cls-1" points="3699.56 484.77 3530.45 484.77 3530.45 426.99 3577.66 426.99 3577.66 57.78 3527.63 57.78 3527.63 0 3652.35 0 3652.35 426.99 3699.56 426.99 3699.56 484.77"/><rect class="cls-2" x="2738.78" y="19.23" width="79.69" height="83.88"/><path class="cls-1" d="M50.85,274c0,28.9,18.2,39.07,66.9,46.57l35.33,5.35c77.08,11.78,99.56,36.4,99.56,83.5,0,51.92-35.33,87.78-121.5,87.78S0,467.73,0,397.08H43.89c0,45.49,27.3,64.76,87.25,64.76,56.2,0,78.68-15,78.68-50.31,0-28.9-14.45-37.47-68.52-46l-34.79-5.35C37.47,349.44,8,325.36,8,276.11,8,226.33,45,195.29,124.71,195.29c78.68,0,119.9,27.83,120.43,90.46H202.86c0-38.54-25.16-55.13-78.15-55.13C67.44,230.62,50.85,247.21,50.85,274Z"/><path class="cls-1" d="M267.62,201.18h47.64l98.48,250.49,99-250.49h46L442.65,491.82H383.77Z"/><path class="cls-1" d="M587.16,345.69c0-97.95,45-150.4,138.63-150.4,98.49,0,134.35,56.74,134.35,142.91a152.94,152.94,0,0,1-1.07,16.06h-228c2.14,72.79,31.58,107.05,98.49,107.05,54.59,0,85.1-20.88,86.71-65.3h42.82C855.32,461.84,812,497.17,727.93,497.17,632.66,497.17,587.16,444.72,587.16,345.69Zm45.5-27.83H817.32c-3.21-51.92-24.62-86.71-91.53-86.71C667.45,231.15,639.08,259,632.66,317.86Z"/><path class="cls-1" d="M1011.07,455.42V126.78H894.93V90.38h161.64v365h124.18v36.4H894.93v-36.4Z"/><path class="cls-1" d="M1240.69,237.57h-96.88V201.18h99L1253,90.38h33.19v110.8h138.63v36.39H1286.19V432.41c0,16,7,23,22.48,23h116.15v36.4H1297.43c-37.47,0-56.74-18.74-56.74-56.2Z"/><path class="cls-1" d="M1454.25,345.69c0-97.95,45-150.4,138.63-150.4,98.49,0,134.35,56.74,134.35,142.91a150.29,150.29,0,0,1-1.07,16.06h-228c2.15,72.79,31.58,107.05,98.49,107.05,54.6,0,85.1-20.88,86.71-65.3h42.82c-3.75,65.83-47.1,101.16-131.14,101.16C1499.75,497.17,1454.25,444.72,1454.25,345.69Zm45.5-27.83h184.66c-3.21-51.92-24.62-86.71-91.53-86.71C1534.54,231.15,1506.17,259,1499.75,317.86Z"/></g></g></svg>