<svg xmlns="http://www.w3.org/2000/svg" viewBox="0 0 4356.07 560.26"><defs><style>.cls-1{fill:#f73c00;}</style></defs><g id="Layer_2" data-name="Layer 2"><g id="Layer_1-2" data-name="Layer 1"><polygon points="2650.9 484.77 2481.79 484.77 2481.79 426.99 2529 426.99 2529 57.78 2478.97 57.78 2478.97 0 2603.69 0 2603.69 426.99 2650.9 426.99 2650.9 484.77"/><path d="M2906.19,376.26q-4.93,19.73-21.14,37.35-15.5,17.61-52.14,17.61-78.21,0-84.55-88.78h213.5a230.7,230.7,0,0,0,4.22-42.28q-.7-59.88-39.45-98.64-38.05-39.47-103.58-39.46-72.57,0-113.44,48.62-40.17,48.62-40.16,121.19,0,78.92,44.39,119.78,44.38,40.17,113.44,40.17,64.11,0,100.76-31t40.86-72.57Zm-135.28-136q17.61-22.54,51.43-22.54,37.35,0,52.85,25.36,16.2,24.66,13.39,52.85H2749.07Q2753.29,262.82,2770.91,240.27Z"/><polygon points="3334.26 484.77 3182.77 484.77 3182.77 426.99 3213.07 426.99 3156 362.17 3099.63 426.99 3126.4 426.99 3126.4 484.77 2984.78 484.77 2984.78 426.99 3028.46 426.99 3120.06 328.35 3022.83 226.18 2986.89 226.18 2986.89 168.4 3141.2 168.4 3141.2 226.18 3111.61 226.18 3164.45 289.59 3220.82 226.18 3193.34 226.18 3193.34 168.4 3326.51 168.4 3326.51 226.18 3293.39 226.18 3202.5 321.3 3300.44 426.99 3334.26 426.99 3334.26 484.77"/><polygon points="3523.32 484.77 3354.22 484.77 3354.22 426.99 3401.43 426.99 3401.43 226.88 3351.4 226.88 3351.4 168.4 3476.11 168.4 3476.11 426.99 3523.32 426.99 3523.32 484.77"/><path d="M3836.16,371.33q-4.92,42.27-37.34,81.73-32.42,38.76-104.28,38.75-67.65,0-110.63-40.86-42.27-40.87-42.27-119.08,0-76.8,43.68-123.31,44.4-46.5,115.56-46.5a231.53,231.53,0,0,1,56.37,7.05,209.07,209.07,0,0,1,55.66,23.25l12.68,88.78L3765,287.48l-10.57-52.14a124,124,0,0,0-55-12.68q-78.91,0-78.92,105.69,0,102.87,81,102.87,59.19,0,71.17-71.87Z"/><path d="M4175.64,436.86q-9.86,2.82-16.2,2.82-23.25,0-23.26-28.19V269.16q0-53.55-34.52-80.32-33.82-26.78-86.67-26.78-35.92,0-63.41,6.34t-62.71,23.26l-13.39,78.91,60.6,6.34,12.68-48.61a81,81,0,0,1,24.66-8.46,180.63,180.63,0,0,1,28.19-2.11q39.45,0,49.32,22.54t9.86,50.74v17.61q-12-1.41-26.07-2.11t-27.48-.71q-54.25,0-100.76,19-46.5,18.32-46.5,76.8,0,50,31.71,70.46,32.42,19.73,65.53,19.73,38,0,63.41-19.73,26.07-19.72,40.16-44.39v1.41q4.93,62.7,64.83,62.71a100,100,0,0,0,50.73-13.39Zm-114.85-77.51Q4058,397.41,4034,417.13q-24,19-50.73,19-45.81,0-45.8-43,0-29.6,21.84-39.46,22.55-9.85,50.73-9.86a236.54,236.54,0,0,1,26.07,1.41q12.33,1.37,24.66,2.82Z"/><polygon points="4356.07 484.77 4186.96 484.77 4186.96 426.99 4234.17 426.99 4234.17 57.78 4184.15 57.78 4184.15 0 4308.86 0 4308.86 426.99 4356.07 426.99 4356.07 484.77"/><rect class="cls-1" x="3395.29" y="19.23" width="79.69" height="83.88"/><path d="M197.12,237.32h92.27v41.94H197.12Z"/><path d="M83.88,371.53h92.27v41.94H83.88Z"/><rect class="cls-1" x="83.88" y="237.32" width="92.27" height="41.94"/><path class="cls-1" d="M310.36,237.32v41.94h37.75V237.32ZM83.88,304.43v41.94h151V304.43Zm172,0v41.94h92.27V304.43Z"/><path class="cls-1" d="M197.12,371.53h92.27v41.94H197.12Z"/><path d="M310.36,371.53h37.75v41.94H310.36Z"/><path d="M348.11,195.38V153.44H0V497.35H348.11V455.41H41.94v-260ZM432,153.44v41.94h21v260H432v41.94H494.9V153.44Z"/><path d="M327.14,132.47V90.52h130v42H411V518.32h46.14v41.94h-130V518.32h41.94V132.47Z"/><path d="M707.36,274c0,28.9,18.2,39.07,66.91,46.57l35.32,5.35c77.08,11.78,99.56,36.4,99.56,83.5,0,51.92-35.33,87.78-121.5,87.78S656.51,467.73,656.51,397.08H700.4c0,45.49,27.3,64.76,87.25,64.76,56.2,0,78.68-15,78.68-50.31,0-28.9-14.45-37.47-68.51-46L763,360.15c-69-10.71-98.49-34.79-98.49-84,0-49.78,36.93-80.82,116.69-80.82,78.68,0,119.89,27.83,120.43,90.46H859.37c0-38.54-25.15-55.13-78.14-55.13C724,230.62,707.36,247.21,707.36,274Z"/><path d="M924.13,201.18h47.64l98.49,250.49,99-250.49h46L1099.16,491.82h-58.88Z"/><path d="M1243.67,345.69c0-97.95,45-150.4,138.63-150.4,98.49,0,134.35,56.74,134.35,142.91a152.94,152.94,0,0,1-1.07,16.06h-228c2.15,72.79,31.58,107.05,98.49,107.05,54.59,0,85.1-20.88,86.71-65.3h42.82c-3.75,65.83-47.1,101.16-131.14,101.16C1289.17,497.17,1243.67,444.72,1243.67,345.69Zm45.5-27.83h184.66c-3.21-51.92-24.62-86.71-91.53-86.71C1324,231.15,1295.59,259,1289.17,317.86Z"/><path d="M1667.59,455.42V126.78H1551.44V90.38h161.64v365h124.18v36.4H1551.44v-36.4Z"/><path d="M1897.21,237.57h-96.88V201.18h99l10.17-110.8h33.18v110.8h138.63v36.39H1942.7V432.41c0,16,7,23,22.48,23h116.15v36.4H1953.94c-37.47,0-56.73-18.74-56.73-56.2Z"/><path d="M2110.77,345.69c0-97.95,45-150.4,138.63-150.4,98.48,0,134.34,56.74,134.34,142.91a150.29,150.29,0,0,1-1.07,16.06h-228c2.14,72.79,31.58,107.05,98.48,107.05,54.6,0,85.11-20.88,86.71-65.3h42.82c-3.74,65.83-47.1,101.16-131.13,101.16C2156.26,497.17,2110.77,444.72,2110.77,345.69Zm45.49-27.83h184.66c-3.21-51.92-24.62-86.71-91.52-86.71C2191.05,231.15,2162.69,259,2156.26,317.86Z"/></g></g></svg>